<mxfile host="Electron" agent="Mozilla/5.0 (X11; Linux x86_64) AppleWebKit/537.36 (KHTML, like Gecko) draw.io/26.0.16 Chrome/132.0.6834.196 Electron/34.2.0 Safari/537.36" version="26.0.16">
  <diagram name="Page-1" id="_9h94Fa5iUUOn6h_M6oG">
    <mxGraphModel dx="2074" dy="1929" grid="1" gridSize="10" guides="1" tooltips="1" connect="1" arrows="1" fold="1" page="1" pageScale="1" pageWidth="850" pageHeight="1100" math="0" shadow="0">
      <root>
        <mxCell id="0" />
        <mxCell id="1" parent="0" />
        <mxCell id="l1Lvxhjas3BEqWuYBTaV-3" style="edgeStyle=orthogonalEdgeStyle;rounded=0;orthogonalLoop=1;jettySize=auto;html=1;entryX=0.5;entryY=0;entryDx=0;entryDy=0;" parent="1" source="l1Lvxhjas3BEqWuYBTaV-1" target="l1Lvxhjas3BEqWuYBTaV-2" edge="1">
          <mxGeometry relative="1" as="geometry" />
        </mxCell>
        <mxCell id="l1Lvxhjas3BEqWuYBTaV-1" value="Uma pessoa normal usando bitcoin" style="rounded=0;whiteSpace=wrap;html=1;" parent="1" vertex="1">
          <mxGeometry x="340" y="40" width="210" height="80" as="geometry" />
        </mxCell>
        <mxCell id="l1Lvxhjas3BEqWuYBTaV-5" style="edgeStyle=orthogonalEdgeStyle;rounded=0;orthogonalLoop=1;jettySize=auto;html=1;" parent="1" source="l1Lvxhjas3BEqWuYBTaV-2" target="l1Lvxhjas3BEqWuYBTaV-4" edge="1">
          <mxGeometry relative="1" as="geometry" />
        </mxCell>
        <mxCell id="l1Lvxhjas3BEqWuYBTaV-7" style="edgeStyle=orthogonalEdgeStyle;rounded=0;orthogonalLoop=1;jettySize=auto;html=1;entryX=0;entryY=0.5;entryDx=0;entryDy=0;" parent="1" source="l1Lvxhjas3BEqWuYBTaV-2" target="l1Lvxhjas3BEqWuYBTaV-6" edge="1">
          <mxGeometry relative="1" as="geometry" />
        </mxCell>
        <mxCell id="l1Lvxhjas3BEqWuYBTaV-2" value="Pagamento de bitcoin normal para qualquer lugar. A pessoa não paga nenhuma taxa, pagando apenas a taxa de gás natural da blockchain" style="rounded=0;whiteSpace=wrap;html=1;" parent="1" vertex="1">
          <mxGeometry x="343.75" y="170" width="202.5" height="70" as="geometry" />
        </mxCell>
        <mxCell id="l1Lvxhjas3BEqWuYBTaV-18" style="edgeStyle=orthogonalEdgeStyle;rounded=0;orthogonalLoop=1;jettySize=auto;html=1;" parent="1" source="l1Lvxhjas3BEqWuYBTaV-4" target="l1Lvxhjas3BEqWuYBTaV-17" edge="1">
          <mxGeometry relative="1" as="geometry" />
        </mxCell>
        <mxCell id="l1Lvxhjas3BEqWuYBTaV-4" value="A pesosa que recebe o pagamento" style="rounded=0;whiteSpace=wrap;html=1;" parent="1" vertex="1">
          <mxGeometry x="367.5" y="300" width="155" height="60" as="geometry" />
        </mxCell>
        <mxCell id="l1Lvxhjas3BEqWuYBTaV-9" style="edgeStyle=orthogonalEdgeStyle;rounded=0;orthogonalLoop=1;jettySize=auto;html=1;entryX=0.5;entryY=0;entryDx=0;entryDy=0;" parent="1" source="l1Lvxhjas3BEqWuYBTaV-6" target="l1Lvxhjas3BEqWuYBTaV-8" edge="1">
          <mxGeometry relative="1" as="geometry" />
        </mxCell>
        <mxCell id="l1Lvxhjas3BEqWuYBTaV-11" style="edgeStyle=orthogonalEdgeStyle;rounded=0;orthogonalLoop=1;jettySize=auto;html=1;entryX=0.5;entryY=1;entryDx=0;entryDy=0;" parent="1" source="l1Lvxhjas3BEqWuYBTaV-6" target="l1Lvxhjas3BEqWuYBTaV-10" edge="1">
          <mxGeometry relative="1" as="geometry" />
        </mxCell>
        <mxCell id="l1Lvxhjas3BEqWuYBTaV-6" value="Taxa de gás de transação de blockchain natural retirada do pagamento" style="rounded=0;whiteSpace=wrap;html=1;" parent="1" vertex="1">
          <mxGeometry x="625" y="165" width="180" height="80" as="geometry" />
        </mxCell>
        <mxCell id="l1Lvxhjas3BEqWuYBTaV-23" style="edgeStyle=orthogonalEdgeStyle;rounded=0;orthogonalLoop=1;jettySize=auto;html=1;" parent="1" source="l1Lvxhjas3BEqWuYBTaV-8" target="l1Lvxhjas3BEqWuYBTaV-21" edge="1">
          <mxGeometry relative="1" as="geometry" />
        </mxCell>
        <mxCell id="l1Lvxhjas3BEqWuYBTaV-8" value="&lt;div&gt;Instituição de mineração de bitcoins. Aqui podemos colocar um administrador de um município privado ou público.&lt;/div&gt;&lt;div&gt;&lt;br&gt;&lt;/div&gt;&lt;div&gt;Todos os bitcoins extraídos entram no cofre deste ministério municipal.&lt;/div&gt;" style="rounded=0;whiteSpace=wrap;html=1;" parent="1" vertex="1">
          <mxGeometry x="700" y="330" width="265" height="110" as="geometry" />
        </mxCell>
        <mxCell id="l1Lvxhjas3BEqWuYBTaV-13" style="edgeStyle=orthogonalEdgeStyle;rounded=0;orthogonalLoop=1;jettySize=auto;html=1;" parent="1" source="l1Lvxhjas3BEqWuYBTaV-10" target="l1Lvxhjas3BEqWuYBTaV-12" edge="1">
          <mxGeometry relative="1" as="geometry" />
        </mxCell>
        <mxCell id="l1Lvxhjas3BEqWuYBTaV-10" value="Setor privado que não vai ser contabilizado nessa item" style="rounded=0;whiteSpace=wrap;html=1;" parent="1" vertex="1">
          <mxGeometry x="630" y="-5" width="170" height="70" as="geometry" />
        </mxCell>
        <mxCell id="l1Lvxhjas3BEqWuYBTaV-12" value="Setor privado termina aqui" style="ellipse;whiteSpace=wrap;html=1;aspect=fixed;" parent="1" vertex="1">
          <mxGeometry x="675" y="-170" width="80" height="80" as="geometry" />
        </mxCell>
        <mxCell id="l1Lvxhjas3BEqWuYBTaV-16" style="edgeStyle=orthogonalEdgeStyle;rounded=0;orthogonalLoop=1;jettySize=auto;html=1;" parent="1" source="l1Lvxhjas3BEqWuYBTaV-15" target="l1Lvxhjas3BEqWuYBTaV-1" edge="1">
          <mxGeometry relative="1" as="geometry" />
        </mxCell>
        <mxCell id="l1Lvxhjas3BEqWuYBTaV-15" value="Autor" style="shape=umlActor;verticalLabelPosition=bottom;verticalAlign=top;html=1;outlineConnect=0;" parent="1" vertex="1">
          <mxGeometry x="230" width="30" height="60" as="geometry" />
        </mxCell>
        <mxCell id="l1Lvxhjas3BEqWuYBTaV-17" value="A transação é finalizada aqui" style="ellipse;whiteSpace=wrap;html=1;aspect=fixed;" parent="1" vertex="1">
          <mxGeometry x="405" y="420" width="80" height="80" as="geometry" />
        </mxCell>
        <mxCell id="l1Lvxhjas3BEqWuYBTaV-24" style="edgeStyle=orthogonalEdgeStyle;rounded=0;orthogonalLoop=1;jettySize=auto;html=1;entryX=0;entryY=0.5;entryDx=0;entryDy=0;" parent="1" source="l1Lvxhjas3BEqWuYBTaV-21" target="l1Lvxhjas3BEqWuYBTaV-2" edge="1">
          <mxGeometry relative="1" as="geometry">
            <Array as="points">
              <mxPoint x="280" y="560" />
              <mxPoint x="280" y="205" />
            </Array>
          </mxGeometry>
        </mxCell>
        <mxCell id="l1Lvxhjas3BEqWuYBTaV-21" value="Governo projeta pagamentos. Coloque tudo o que você imagina, pagamentos de funcionários, serviços sociais, serviços públicos e tudo em geral." style="rounded=0;whiteSpace=wrap;html=1;" parent="1" vertex="1">
          <mxGeometry x="560" y="520" width="220" height="80" as="geometry" />
        </mxCell>
        <mxCell id="l1Lvxhjas3BEqWuYBTaV-26" style="edgeStyle=orthogonalEdgeStyle;rounded=0;orthogonalLoop=1;jettySize=auto;html=1;" parent="1" source="l1Lvxhjas3BEqWuYBTaV-25" target="l1Lvxhjas3BEqWuYBTaV-6" edge="1">
          <mxGeometry relative="1" as="geometry" />
        </mxCell>
        <mxCell id="l1Lvxhjas3BEqWuYBTaV-25" value="&lt;p class=&quot;&quot; data-end=&quot;581&quot; data-start=&quot;144&quot;&gt;&lt;span style=&quot;background-color: light-dark(#ffffff, var(--ge-dark-color, #121212));&quot;&gt;&lt;span style=&quot;color: light-dark(rgb(0, 0, 0), rgb(255, 255, 255));&quot;&gt;&lt;b style=&quot;&quot;&gt;Taxas da Rede Bitcoin (Taxas de Transação)&lt;/b&gt;&lt;/span&gt;&lt;strong data-end=&quot;188&quot; data-start=&quot;144&quot;&gt;:&lt;/strong&gt;&lt;br data-end=&quot;191&quot; data-start=&quot;188&quot;&gt;&lt;br&gt;As taxas da rede Bitcoin são pequenas quantias de BTC pagas pelos usuários para que suas transações sejam confirmadas pelos mineradores. Essas taxas não são fixas — elas variam dependendo da congestão da rede. Quando muitos usuários estão enviando transações ao mesmo tempo, as taxas aumentam devido ao espaço limitado por bloco (cerca de 1 MB). Os mineradores geralmente escolhem primeiro as transações com as maiores taxas, então pagar mais pode levar a uma confirmação mais rápida.&lt;/span&gt;&lt;/p&gt;&lt;p class=&quot;&quot; data-end=&quot;875&quot; data-start=&quot;583&quot;&gt;&lt;span style=&quot;background-color: light-dark(#ffffff, var(--ge-dark-color, #121212));&quot;&gt;&lt;b&gt;Frequência de Atualização das Taxas:&lt;/b&gt;&lt;br data-end=&quot;611&quot; data-start=&quot;608&quot;&gt;&lt;br&gt;As taxas são ajustadas aproximadamente a cada 10 minutos, que é o tempo médio necessário para minerar um novo bloco. No entanto, estimadores de taxas e carteiras podem ajustar as taxas sugeridas com mais frequência, observando em tempo real o mempool (o conjunto de transações pendentes).&lt;/span&gt;&lt;/p&gt;&lt;p class=&quot;&quot; data-end=&quot;1412&quot; data-start=&quot;877&quot;&gt;&lt;span style=&quot;background-color: light-dark(#ffffff, var(--ge-dark-color, #121212));&quot;&gt;&lt;b&gt;Impacto do Poder de Mineração (Hashrate):&lt;/b&gt;&lt;br data-end=&quot;918&quot; data-start=&quot;915&quot;&gt;&lt;br&gt;O número total de máquinas de mineração (poder de mineração ou hashrate) não controla diretamente as taxas, mas influencia a estabilidade na criação dos blocos. Se mais mineradores estiverem ativos, os blocos tendem a ser encontrados com mais consistência, mantendo a média de 10 minutos mais estável. Se muitos mineradores saírem da rede, o tempo para encontrar blocos pode aumentar até o próximo ajuste de dificuldade (que ocorre a cada 2016 blocos, ou cerca de a cada 2 semanas), fazendo com que as transações demorem mais e possivelmente aumentando as taxas devido à congestão.&lt;/span&gt;&lt;span style=&quot;background-color: light-dark(#ffffff, var(--ge-dark-color, #121212));&quot;&gt;&lt;/span&gt;&lt;/p&gt;" style="shape=process;whiteSpace=wrap;html=1;backgroundOutline=1;fillColor=#e1d5e7;strokeColor=#9673a6;" parent="1" vertex="1">
          <mxGeometry x="1120" y="-330" width="410" height="520" as="geometry" />
        </mxCell>
        <mxCell id="l1Lvxhjas3BEqWuYBTaV-32" style="edgeStyle=orthogonalEdgeStyle;rounded=0;orthogonalLoop=1;jettySize=auto;html=1;exitX=0.997;exitY=0.694;exitDx=0;exitDy=0;exitPerimeter=0;entryX=-0.003;entryY=0.021;entryDx=0;entryDy=0;entryPerimeter=0;" parent="1" source="l1Lvxhjas3BEqWuYBTaV-27" target="l1Lvxhjas3BEqWuYBTaV-31" edge="1">
          <mxGeometry relative="1" as="geometry" />
        </mxCell>
        <mxCell id="l1Lvxhjas3BEqWuYBTaV-27" value="&lt;p class=&quot;&quot; data-end=&quot;260&quot; data-start=&quot;172&quot;&gt;&lt;b style=&quot;background-color: light-dark(#ffffff, var(--ge-dark-color, #121212));&quot;&gt;Tributação Descentralizada por Meio das Taxas de Mineração de Bitcoin – Um Modelo Hipotético de Governo&lt;/b&gt;&lt;/p&gt;&lt;p class=&quot;&quot; data-end=&quot;613&quot; data-start=&quot;262&quot;&gt;&lt;span style=&quot;background-color: light-dark(#ffffff, var(--ge-dark-color, #121212));&quot;&gt;Neste sistema alternativo, em vez de tributar produtos ou rendimentos, o governo se financia participando diretamente da rede Bitcoin como minerador. Cada município é responsável por construir e manter sua própria infraestrutura de mineração. A receita gerada pelas taxas de transação e recompensas de bloco torna-se a principal fonte de financiamento público.&lt;/span&gt;&lt;/p&gt;&lt;h3 class=&quot;&quot; data-end=&quot;635&quot; data-start=&quot;615&quot;&gt;&lt;span style=&quot;background-color: light-dark(#ffffff, var(--ge-dark-color, #121212));&quot;&gt;Como Funciona&lt;/span&gt;&lt;/h3&gt;&lt;ol data-end=&quot;2541&quot; data-start=&quot;637&quot;&gt;&lt;li class=&quot;&quot; data-end=&quot;898&quot; data-start=&quot;637&quot;&gt;&lt;p class=&quot;&quot; data-end=&quot;898&quot; data-start=&quot;640&quot;&gt;&lt;span style=&quot;background-color: light-dark(#ffffff, var(--ge-dark-color, #121212));&quot;&gt;&lt;b&gt;Centros Municipais de Mineração&lt;/b&gt;&lt;br data-end=&quot;677&quot; data-start=&quot;674&quot;&gt;&lt;br&gt;Cada cidade ou município instala sua própria instalação local de mineração, preferencialmente alimentada por fontes de energia renovável ou de baixo custo. Esses centros são de propriedade pública e operados localmente, podendo ser geridos por uma agência municipal ou cooperativa comunitária.&lt;/span&gt;&lt;/p&gt;&lt;/li&gt;&lt;li class=&quot;&quot; data-end=&quot;1291&quot; data-start=&quot;900&quot;&gt;&lt;p class=&quot;&quot; data-end=&quot;956&quot; data-start=&quot;903&quot;&gt;&lt;span style=&quot;background-color: light-dark(#ffffff, var(--ge-dark-color, #121212));&quot;&gt;&lt;b&gt;Geração de Receita&lt;/b&gt;&lt;br data-end=&quot;928&quot; data-start=&quot;925&quot;&gt;&lt;br&gt;As recompensas da mineração vêm de:&lt;/span&gt;&lt;/p&gt;&lt;ul data-end=&quot;1134&quot; data-start=&quot;960&quot;&gt;&lt;li class=&quot;&quot; data-end=&quot;1060&quot; data-start=&quot;960&quot;&gt;&lt;p class=&quot;&quot; data-end=&quot;1060&quot; data-start=&quot;962&quot;&gt;&lt;span style=&quot;background-color: light-dark(#ffffff, var(--ge-dark-color, #121212));&quot;&gt;&lt;strong data-end=&quot;1088&quot; data-start=&quot;1064&quot;&gt;Recompensas de bloco&lt;/strong&gt; (atualmente 3.125 BTC por bloco após o halving de 2024, reduzindo a cada ~4 anos).&lt;/span&gt;&lt;/p&gt;&lt;/li&gt;&lt;li class=&quot;&quot; data-end=&quot;1134&quot; data-start=&quot;1064&quot;&gt;&lt;p class=&quot;&quot; data-end=&quot;1134&quot; data-start=&quot;1066&quot;&gt;&lt;span style=&quot;background-color: light-dark(#ffffff, var(--ge-dark-color, #121212));&quot;&gt;&lt;strong data-end=&quot;1196&quot; data-start=&quot;1174&quot;&gt;Taxas de transação&lt;/strong&gt; pagas pelos usuários para priorizar suas transações.&lt;/span&gt;&lt;/p&gt;&lt;/li&gt;&lt;/ul&gt;&lt;p class=&quot;&quot; data-end=&quot;1291&quot; data-start=&quot;1139&quot;&gt;&lt;span style=&quot;background-color: light-dark(#ffffff, var(--ge-dark-color, #121212));&quot;&gt;Esse BTC é coletado automaticamente pela operação de mineração do município.&lt;/span&gt;&lt;/p&gt;&lt;/li&gt;&lt;li class=&quot;&quot; data-end=&quot;1541&quot; data-start=&quot;1293&quot;&gt;&lt;p class=&quot;&quot; data-end=&quot;1541&quot; data-start=&quot;1296&quot;&gt;&lt;span style=&quot;background-color: light-dark(#ffffff, var(--ge-dark-color, #121212));&quot;&gt;&lt;b&gt;Sem Impostos sobre Bens ou Serviços&lt;/b&gt;&lt;br data-end=&quot;1332&quot; data-start=&quot;1329&quot;&gt;&lt;br&gt;Como o financiamento vem da mineração, não há impostos sobre vendas de produtos, rendimentos ou prestação de serviços. Isso reduz o atrito econômico, estimula o empreendedorismo e simplifica preços e operações comerciais.&lt;/span&gt;&lt;/p&gt;&lt;/li&gt;&lt;li class=&quot;&quot; data-end=&quot;1871&quot; data-start=&quot;1543&quot;&gt;&lt;p class=&quot;&quot; data-end=&quot;1871&quot; data-start=&quot;1546&quot;&gt;&lt;span style=&quot;background-color: light-dark(#ffffff, var(--ge-dark-color, #121212));&quot;&gt;&lt;b&gt;Incentivo à Eficiência e Inovação Energética&lt;/b&gt;&lt;br data-end=&quot;1599&quot; data-start=&quot;1596&quot;&gt;&lt;br&gt;Os municípios são incentivados a otimizar seus equipamentos de mineração e o uso de energia. Cidades com melhor infraestrutura e energia mais barata podem minerar com mais eficácia, gerando mais receita. Isso leva naturalmente os governos locais a adotarem fontes de energia mais limpas e eficientes.&lt;/span&gt;&lt;/p&gt;&lt;/li&gt;&lt;li class=&quot;&quot; data-end=&quot;2212&quot; data-start=&quot;1873&quot;&gt;&lt;p class=&quot;&quot; data-end=&quot;2212&quot; data-start=&quot;1876&quot;&gt;&lt;span style=&quot;background-color: light-dark(#ffffff, var(--ge-dark-color, #121212));&quot;&gt;&lt;b&gt;Mecanismo de Redistribuição de Recursos (Opcional)&lt;/b&gt;&lt;br data-end=&quot;1916&quot; data-start=&quot;1913&quot;&gt;&lt;br&gt;Para evitar desigualdade entre cidades pequenas e grandes (já que a lucratividade da mineração pode variar), uma parte de todo o BTC minerado pode ser direcionada para um &lt;b&gt;fundo nacional de redistribuição&lt;/b&gt;, que seria alocado com base na população ou na necessidade, garantindo financiamento básico até mesmo para municípios com menor desempenho em mineração.&lt;/span&gt;&lt;/p&gt;&lt;/li&gt;&lt;li class=&quot;&quot; data-end=&quot;2541&quot; data-start=&quot;2214&quot;&gt;&lt;p class=&quot;&quot; data-end=&quot;2541&quot; data-start=&quot;2217&quot;&gt;&lt;span style=&quot;background-color: light-dark(#ffffff, var(--ge-dark-color, #121212));&quot;&gt;&lt;b&gt;Segurança da Rede como Dever Público&lt;/b&gt;&lt;br data-end=&quot;2255&quot; data-start=&quot;2252&quot;&gt;&lt;br&gt;Em vez de tratar os mineradores como agentes privados, a mineração torna-se um dever cívico — uma contribuição do governo para a segurança da rede global e a infraestrutura financeira. Cidadãos poderiam inclusive participar oferecendo hardware ou alugando poder computacional para o pool de mineração municipal.&lt;/span&gt;&lt;/p&gt;&lt;/li&gt;&lt;/ol&gt;&lt;h3 class=&quot;&quot; data-end=&quot;2559&quot; data-start=&quot;2543&quot;&gt;&lt;span style=&quot;background-color: light-dark(#ffffff, var(--ge-dark-color, #121212));&quot;&gt;Benefícios&lt;/span&gt;&lt;/h3&gt;&lt;ul data-end=&quot;2889&quot; data-start=&quot;2561&quot;&gt;&lt;li class=&quot;&quot; data-end=&quot;2626&quot; data-start=&quot;2561&quot;&gt;&lt;p class=&quot;&quot; data-end=&quot;2626&quot; data-start=&quot;2563&quot;&gt;&lt;span style=&quot;background-color: light-dark(#ffffff, var(--ge-dark-color, #121212));&quot;&gt;&lt;b&gt;Sem impostos sobre vendas ou IVA&lt;/b&gt;, tornando os produtos mais baratos para os consumidores.&lt;/span&gt;&lt;/p&gt;&lt;/li&gt;&lt;li class=&quot;&quot; data-end=&quot;2725&quot; data-start=&quot;2627&quot;&gt;&lt;p class=&quot;&quot; data-end=&quot;2725&quot; data-start=&quot;2629&quot;&gt;&lt;span style=&quot;background-color: light-dark(#ffffff, var(--ge-dark-color, #121212));&quot;&gt;&lt;b&gt;Financiamento transparente&lt;/b&gt;, já que a atividade de mineração e sua renda são auditáveis publicamente na blockchain.&lt;/span&gt;&lt;/p&gt;&lt;/li&gt;&lt;li class=&quot;&quot; data-end=&quot;2802&quot; data-start=&quot;2726&quot;&gt;&lt;p class=&quot;&quot; data-end=&quot;2802&quot; data-start=&quot;2728&quot;&gt;&lt;span style=&quot;background-color: light-dark(#ffffff, var(--ge-dark-color, #121212));&quot;&gt;&lt;b&gt;Inovação energética&lt;/b&gt;, com municípios competindo para minerar de forma mais eficiente.&lt;/span&gt;&lt;/p&gt;&lt;/li&gt;&lt;li class=&quot;&quot; data-end=&quot;2889&quot; data-start=&quot;2803&quot;&gt;&lt;p class=&quot;&quot; data-end=&quot;2889&quot; data-start=&quot;2805&quot;&gt;&lt;span style=&quot;background-color: light-dark(#ffffff, var(--ge-dark-color, #121212));&quot;&gt;&lt;b&gt;Governança descentralizada&lt;/b&gt;, com autonomia financeira transferida para os governos locais.&lt;/span&gt;&lt;/p&gt;&lt;/li&gt;&lt;/ul&gt;&lt;h3 class=&quot;&quot; data-end=&quot;2909&quot; data-start=&quot;2891&quot;&gt;&lt;span style=&quot;background-color: light-dark(#ffffff, var(--ge-dark-color, #121212));&quot;&gt;Desafios&lt;/span&gt;&lt;/h3&gt;&lt;ul data-end=&quot;3168&quot; data-start=&quot;2911&quot;&gt;&lt;li class=&quot;&quot; data-end=&quot;2979&quot; data-start=&quot;2911&quot;&gt;&lt;p class=&quot;&quot; data-end=&quot;2979&quot; data-start=&quot;2913&quot;&gt;&lt;span style=&quot;background-color: light-dark(#ffffff, var(--ge-dark-color, #121212));&quot;&gt;&lt;b&gt;Alto investimento inicial&lt;/b&gt; em hardware e infraestrutura de mineração.&lt;/span&gt;&lt;/p&gt;&lt;/li&gt;&lt;li class=&quot;&quot; data-end=&quot;3044&quot; data-start=&quot;2980&quot;&gt;&lt;p class=&quot;&quot; data-end=&quot;3044&quot; data-start=&quot;2982&quot;&gt;&lt;span style=&quot;background-color: light-dark(#ffffff, var(--ge-dark-color, #121212));&quot;&gt;&lt;b&gt;Demanda energética&lt;/b&gt;, especialmente se não for equilibrada com fontes renováveis.&lt;/span&gt;&lt;/p&gt;&lt;/li&gt;&lt;/ul&gt;" style="shape=process;whiteSpace=wrap;html=1;backgroundOutline=1;fillColor=#dae8fc;strokeColor=#6c8ebf;" parent="1" vertex="1">
          <mxGeometry x="1050" y="210" width="530" height="1200" as="geometry" />
        </mxCell>
        <mxCell id="l1Lvxhjas3BEqWuYBTaV-28" style="edgeStyle=orthogonalEdgeStyle;rounded=0;orthogonalLoop=1;jettySize=auto;html=1;" parent="1" source="l1Lvxhjas3BEqWuYBTaV-27" target="l1Lvxhjas3BEqWuYBTaV-8" edge="1">
          <mxGeometry relative="1" as="geometry" />
        </mxCell>
        <mxCell id="l1Lvxhjas3BEqWuYBTaV-29" style="edgeStyle=orthogonalEdgeStyle;rounded=0;orthogonalLoop=1;jettySize=auto;html=1;exitX=0.5;exitY=1;exitDx=0;exitDy=0;" parent="1" source="l1Lvxhjas3BEqWuYBTaV-27" target="l1Lvxhjas3BEqWuYBTaV-27" edge="1">
          <mxGeometry relative="1" as="geometry" />
        </mxCell>
        <mxCell id="l1Lvxhjas3BEqWuYBTaV-31" value="&lt;p&gt;&lt;b style=&quot;background-color: light-dark(#ffffff, var(--ge-dark-color, #121212));&quot;&gt;Segurança da Rede como Dever Público (Conceito Estendido)&lt;/b&gt;&lt;/p&gt;&lt;p&gt;&lt;span style=&quot;background-color: light-dark(#ffffff, var(--ge-dark-color, #121212));&quot;&gt;Em um mundo onde um governo substitui a tributação tradicional pela receita gerada pela mineração de Bitcoin, &lt;b&gt;proteger a rede Bitcoin&lt;/b&gt; se torna uma responsabilidade pública — assim como manter estradas ou hospitais. Nesse modelo, os mineradores passam a ser defensores cívicos, não apenas buscadores de lucro. Quanto mais um governo contribui com a mineração, mais ele fortalece a rede Bitcoin ao mesmo tempo que arrecada fundos.&lt;/span&gt;&lt;/p&gt;&lt;p&gt;&lt;span style=&quot;background-color: light-dark(#ffffff, var(--ge-dark-color, #121212));&quot;&gt;Essa responsabilidade não se limita ao hardware possuído pelos municípios. Em vez disso, o sistema pode se expandir para incluir a participação dos cidadãos por meio de &lt;strong data-end=&quot;886&quot; data-start=&quot;842&quot;&gt;pools públicos de mineração colaborativa&lt;/strong&gt;.&lt;/span&gt;&lt;/p&gt;&lt;span style=&quot;background-color: light-dark(#ffffff, var(--ge-dark-color, #121212));&quot;&gt;&lt;br&gt;&lt;/span&gt;&lt;hr&gt;&lt;h3&gt;&lt;span style=&quot;background-color: light-dark(#ffffff, var(--ge-dark-color, #121212));&quot;&gt;Pools Públicos de Mineração Colaborativa&lt;/span&gt;&lt;/h3&gt;&lt;h4&gt;&lt;span style=&quot;background-color: light-dark(#ffffff, var(--ge-dark-color, #121212));&quot;&gt;O que são?&lt;/span&gt;&lt;/h4&gt;&lt;p&gt;&lt;span style=&quot;background-color: light-dark(#ffffff, var(--ge-dark-color, #121212));&quot;&gt;Um pool público de mineração é uma infraestrutura colaborativa na qual cidadãos, empresas, escolas ou cooperativas contribuem com seu poder computacional para um sistema de mineração operado pelo governo. Em troca, recebem uma parte justa das recompensas — ou podem doá-las parcial ou totalmente ao município.&lt;/span&gt;&lt;/p&gt;&lt;h4&gt;&lt;span style=&quot;background-color: light-dark(#ffffff, var(--ge-dark-color, #121212));&quot;&gt;&lt;span style=&quot;color: light-dark(rgb(0, 0, 0), rgb(255, 255, 255));&quot;&gt;Como Isso se Encaixa no Modelo Governamental&lt;/span&gt;&lt;strong style=&quot;&quot;&gt;:&lt;/strong&gt;&lt;/span&gt;&lt;/h4&gt;&lt;ol&gt;&lt;li&gt;&lt;p&gt;&lt;span style=&quot;background-color: light-dark(#ffffff, var(--ge-dark-color, #121212));&quot;&gt;&lt;b&gt;Pool Nacional de Mineração com Apoio Governamental (GNMP)&lt;/b&gt;&lt;br&gt;&lt;br&gt;O país poderia hospedar um &lt;strong data-end=&quot;1459&quot; data-start=&quot;1430&quot;&gt;pool de mineração estatal&lt;/strong&gt;, aberto à participação pública. Cada município teria um subnó regional dentro do pool nacional, permitindo:&lt;/span&gt;&lt;/p&gt;&lt;ul&gt;&lt;li&gt;&lt;p&gt;&lt;span style=&quot;background-color: light-dark(#ffffff, var(--ge-dark-color, #121212));&quot;&gt;Coordenação centralizada.&lt;/span&gt;&lt;/p&gt;&lt;/li&gt;&lt;li&gt;&lt;p&gt;&lt;span style=&quot;background-color: light-dark(#ffffff, var(--ge-dark-color, #121212));&quot;&gt;Monitoramento transparente das contribuições de hash rate.&lt;/span&gt;&lt;/p&gt;&lt;/li&gt;&lt;li&gt;&lt;p&gt;&lt;span style=&quot;background-color: light-dark(#ffffff, var(--ge-dark-color, #121212));&quot;&gt;Rastreio justo de receitas e distribuição proporcional de recompensas.&lt;/span&gt;&lt;/p&gt;&lt;/li&gt;&lt;/ul&gt;&lt;/li&gt;&lt;li&gt;&lt;p&gt;&lt;b style=&quot;background-color: light-dark(#ffffff, var(--ge-dark-color, #121212));&quot;&gt;Incentivos aos Cidadãos&lt;/b&gt;&lt;/p&gt;&lt;span style=&quot;background-color: light-dark(#ffffff, var(--ge-dark-color, #121212));&quot;&gt;&lt;br&gt;&lt;/span&gt;&lt;ul&gt;&lt;li&gt;&lt;p&gt;&lt;span style=&quot;background-color: light-dark(#ffffff, var(--ge-dark-color, #121212));&quot;&gt;Os cidadãos podem conectar seus próprios equipamentos de &lt;b&gt;mineração ao sub-pool municipal&lt;/b&gt;.&lt;/span&gt;&lt;/p&gt;&lt;/li&gt;&lt;li&gt;&lt;p&gt;&lt;span style=&quot;background-color: light-dark(#ffffff, var(--ge-dark-color, #121212));&quot;&gt;Eles ganham uma porcentagem das recompensas baseada no poder de hash que contribuírem.&lt;/span&gt;&lt;/p&gt;&lt;/li&gt;&lt;li&gt;&lt;p&gt;&lt;span style=&quot;background-color: light-dark(#ffffff, var(--ge-dark-color, #121212));&quot;&gt;Alternativamente, podem &lt;b&gt;doar esse poder de hash&lt;/b&gt; (total ou parcialmente) como forma de &lt;b&gt;contribuição voluntária aos cofres públicos&lt;/b&gt;.&lt;/span&gt;&lt;/p&gt;&lt;/li&gt;&lt;li&gt;&lt;p&gt;&lt;span style=&quot;background-color: light-dark(#ffffff, var(--ge-dark-color, #121212));&quot;&gt;Os participantes poderiam receber &lt;strong data-end=&quot;2150&quot; data-start=&quot;2130&quot;&gt;créditos fiscais&lt;/strong&gt;, &lt;strong data-end=&quot;2184&quot; data-start=&quot;2152&quot;&gt;descontos em contas públicas&lt;/strong&gt; ou até &lt;strong data-end=&quot;2244&quot; data-start=&quot;2192&quot;&gt;direito de voto em decisões sobre infraestrutura&lt;/strong&gt;, conforme o nível de participação.&lt;/span&gt;&lt;/p&gt;&lt;/li&gt;&lt;/ul&gt;&lt;/li&gt;&lt;span style=&quot;background-color: light-dark(#ffffff, var(--ge-dark-color, #121212));&quot;&gt;&lt;br&gt;&lt;/span&gt;&lt;li&gt;&lt;p&gt;&lt;span style=&quot;background-color: light-dark(#ffffff, var(--ge-dark-color, #121212));&quot;&gt;&lt;b&gt;Educação e Acessibilidade&lt;/b&gt;&lt;br&gt;&lt;br&gt;Para diminuir as barreiras de entrada, o governo poderia:&lt;/span&gt;&lt;/p&gt;&lt;ul&gt;&lt;li&gt;&lt;p&gt;&lt;span style=&quot;background-color: light-dark(#ffffff, var(--ge-dark-color, #121212));&quot;&gt;Oferecer &lt;strong data-end=&quot;2417&quot; data-start=&quot;2391&quot;&gt;programas educacionais&lt;/strong&gt; sobre mineração e eficiência energética.&lt;/span&gt;&lt;/p&gt;&lt;/li&gt;&lt;li&gt;&lt;p&gt;&lt;span style=&quot;background-color: light-dark(#ffffff, var(--ge-dark-color, #121212));&quot;&gt;Disponibilizar &lt;strong data-end=&quot;2514&quot; data-start=&quot;2478&quot;&gt;kits de mineração de baixo custo&lt;/strong&gt; ou ferramentas de software acessíveis.&lt;/span&gt;&lt;/p&gt;&lt;/li&gt;&lt;li&gt;&lt;p&gt;&lt;span style=&quot;background-color: light-dark(#ffffff, var(--ge-dark-color, #121212));&quot;&gt;Criar &lt;strong data-end=&quot;2593&quot; data-start=&quot;2564&quot;&gt;cooperativas de mineração&lt;/strong&gt;, onde comunidades compartilham os custos e dividem as recompensas.&lt;/span&gt;&lt;/p&gt;&lt;/li&gt;&lt;/ul&gt;&lt;/li&gt;&lt;span style=&quot;background-color: light-dark(#ffffff, var(--ge-dark-color, #121212));&quot;&gt;&lt;br&gt;&lt;/span&gt;&lt;li&gt;&lt;p&gt;&lt;b style=&quot;background-color: light-dark(#ffffff, var(--ge-dark-color, #121212));&quot;&gt;Transparência e Confiança&lt;/b&gt;&lt;/p&gt;&lt;ul&gt;&lt;li&gt;&lt;p&gt;&lt;span style=&quot;background-color: light-dark(#ffffff, var(--ge-dark-color, #121212));&quot;&gt;&lt;strong data-end=&quot;2724&quot; data-start=&quot;2704&quot;&gt;Painéis públicos&lt;/strong&gt; mostram estatísticas de mineração ao vivo por região.&lt;/span&gt;&lt;/p&gt;&lt;/li&gt;&lt;li&gt;&lt;p&gt;&lt;span style=&quot;background-color: light-dark(#ffffff, var(--ge-dark-color, #121212));&quot;&gt;Qualquer pessoa pode verificar sua contribuição de hash rate e o histórico de pagamentos via blockchain e pelo site oficial do pool nacional.&lt;/span&gt;&lt;/p&gt;&lt;/li&gt;&lt;li&gt;&lt;p&gt;&lt;span style=&quot;background-color: light-dark(#ffffff, var(--ge-dark-color, #121212));&quot;&gt;Isso reduz a corrupção e fortalece a confiança, pois &lt;b&gt;todos podem ver de onde vem o dinheiro&lt;/b&gt; e quanta energia está sendo consumida.&lt;/span&gt;&lt;/p&gt;&lt;/li&gt;&lt;/ul&gt;&lt;/li&gt;&lt;/ol&gt;&lt;span style=&quot;background-color: light-dark(#ffffff, var(--ge-dark-color, #121212));&quot;&gt;&lt;br&gt;&lt;/span&gt;&lt;hr&gt;&lt;span style=&quot;background-color: light-dark(#ffffff, var(--ge-dark-color, #121212));&quot;&gt;&lt;br&gt;&lt;/span&gt;&lt;h3&gt;&lt;span style=&quot;background-color: light-dark(#ffffff, var(--ge-dark-color, #121212));&quot;&gt;Contribuição para Segurança como Métrica Cívica&lt;/span&gt;&lt;/h3&gt;&lt;p&gt;&lt;span style=&quot;background-color: light-dark(#ffffff, var(--ge-dark-color, #121212));&quot;&gt;Neste modelo, o &lt;strong data-end=&quot;3152&quot; data-start=&quot;3139&quot;&gt;hash rate&lt;/strong&gt; deixa de ser apenas um termo técnico — ele se torna um &lt;strong data-end=&quot;3242&quot; data-start=&quot;3208&quot;&gt;símbolo de contribuição cívica&lt;/strong&gt;.&lt;/span&gt;&lt;/p&gt;&lt;ul&gt;&lt;li&gt;&lt;p&gt;&lt;span style=&quot;background-color: light-dark(#ffffff, var(--ge-dark-color, #121212));&quot;&gt;Uma cidade com alto poder de hash não está apenas ganhando mais — ela está &lt;strong data-end=&quot;3378&quot; data-start=&quot;3322&quot;&gt;contribuindo mais para a segurança financeira global&lt;/strong&gt;.&lt;/span&gt;&lt;/p&gt;&lt;/li&gt;&lt;li&gt;&lt;p&gt;&lt;span style=&quot;background-color: light-dark(#ffffff, var(--ge-dark-color, #121212));&quot;&gt;Em nível nacional, o país ajuda a &lt;strong data-end=&quot;3447&quot; data-start=&quot;3418&quot;&gt;resistir a ataques de 51%&lt;/strong&gt;, fortalecendo o Bitcoin para o mundo inteiro.&lt;/span&gt;&lt;/p&gt;&lt;/li&gt;&lt;li&gt;&lt;p&gt;&lt;span style=&quot;background-color: light-dark(#ffffff, var(--ge-dark-color, #121212));&quot;&gt;Os cidadãos passam a se ver como parte de algo global, dando à mineração pública um &lt;strong data-end=&quot;3628&quot; data-start=&quot;3582&quot;&gt;sentido de propósito e identidade coletiva&lt;/strong&gt;.&lt;/span&gt;&lt;/p&gt;&lt;/li&gt;&lt;/ul&gt;&lt;span style=&quot;background-color: light-dark(#ffffff, var(--ge-dark-color, #121212));&quot;&gt;&lt;br&gt;&lt;/span&gt;&lt;hr&gt;&lt;span style=&quot;background-color: light-dark(#ffffff, var(--ge-dark-color, #121212));&quot;&gt;&lt;br&gt;&lt;/span&gt;&lt;p&gt;&lt;span style=&quot;background-color: light-dark(#ffffff, var(--ge-dark-color, #121212));&quot;&gt;Este conceito transforma a mineração de uma corrida movida por lucros em um &lt;strong data-end=&quot;3744&quot; data-start=&quot;3712&quot;&gt;serviço público colaborativo&lt;/strong&gt;, tornando-se um &lt;strong data-end=&quot;3816&quot; data-start=&quot;3761&quot;&gt;pilar de uma economia moderna baseada em blockchain&lt;/strong&gt;. Ele pode fomentar a educação, a inovação e uma conexão mais forte entre os cidadãos e sua infraestrutura digital.&lt;/span&gt;&lt;/p&gt;" style="shape=process;whiteSpace=wrap;html=1;backgroundOutline=1;fillColor=#dae8fc;strokeColor=#6c8ebf;" parent="1" vertex="1">
          <mxGeometry x="1720" y="-230" width="600" height="1570" as="geometry" />
        </mxCell>
        <mxCell id="l1Lvxhjas3BEqWuYBTaV-36" value="&lt;p class=&quot;&quot; data-end=&quot;501&quot; data-start=&quot;151&quot;&gt;&lt;strong data-end=&quot;162&quot; data-start=&quot;151&quot;&gt;Créditos&lt;/strong&gt;&lt;br data-end=&quot;165&quot; data-start=&quot;162&quot;&gt;&lt;br&gt;Este projeto e sua fundamentação conceitual foram inteiramente desenvolvidos por &lt;strong data-end=&quot;195&quot; data-start=&quot;161&quot;&gt;Yasmin Seidel (JasminDreasond)&lt;/strong&gt;. A ideia de um modelo de governo baseado em tributação descentralizada por meio da mineração de Bitcoin — substituindo os impostos tradicionais por uma infraestrutura pública baseada em blockchain — é um conceito original idealizado e estruturado por Yasmin Seidel.&lt;/p&gt;&lt;br&gt;&lt;p class=&quot;&quot; data-end=&quot;766&quot; data-start=&quot;503&quot;&gt;&lt;span style=&quot;background-color: transparent; color: light-dark(rgb(51, 51, 51), rgb(193, 193, 193));&quot;&gt;A exploração, elaboração e refinamento dessa ideia contaram com o apoio do &lt;/span&gt;&lt;strong style=&quot;background-color: transparent; color: light-dark(rgb(51, 51, 51), rgb(193, 193, 193));&quot; data-end=&quot;539&quot; data-start=&quot;528&quot;&gt;ChatGPT&lt;/strong&gt;&lt;span style=&quot;background-color: transparent; color: light-dark(rgb(51, 51, 51), rgb(193, 193, 193));&quot;&gt;, uma inteligência artificial desenvolvida pela OpenAI, que auxiliou na construção da estrutura teórica, na expansão dos componentes técnicos e na articulação clara do conceito em português&lt;/span&gt;.&lt;/p&gt;&lt;p class=&quot;&quot; data-end=&quot;920&quot; data-start=&quot;768&quot;&gt;O ChatGPT atuou unicamente como uma ferramenta auxiliar no processo de escrita e pesquisa.&lt;/p&gt;" style="rounded=0;whiteSpace=wrap;html=1;fillColor=#f5f5f5;fontColor=#333333;strokeColor=#666666;" parent="1" vertex="1">
          <mxGeometry x="100" y="700" width="740" height="210" as="geometry" />
        </mxCell>
      </root>
    </mxGraphModel>
  </diagram>
</mxfile>
